<svg width="30" height="30" viewBox="0 0 30 30" fill="none" xmlns="http://www.w3.org/2000/svg">
<path d="M27.5 25H2.5V22.5H3.75V13.7888C3.75 7.55375 8.7875 2.5 15 2.5C21.2125 2.5 26.25 7.55375 26.25 13.7888V22.5H27.5V25ZM6.25 22.5H23.75V13.7888C23.75 8.935 19.8325 5 15 5C10.1675 5 6.25 8.935 6.25 13.7888V22.5ZM11.875 26.25H18.125C18.125 27.0788 17.7958 27.8737 17.2097 28.4597C16.6237 29.0458 15.8288 29.375 15 29.375C14.1712 29.375 13.3763 29.0458 12.7903 28.4597C12.2042 27.8737 11.875 27.0788 11.875 26.25Z" fill="black"/>
</svg>
