<svg width="58" height="58" viewBox="0 0 58 58" fill="none" xmlns="http://www.w3.org/2000/svg">
<path d="M27.0168 38.3498L19.6502 30.9832C19.0835 30.4165 18.8002 29.7554 18.8002 28.9998C18.8002 28.2443 19.0835 27.5832 19.6502 27.0165L27.0877 19.579C27.6071 19.0596 28.2559 18.8112 29.0342 18.8338C29.8143 18.8584 30.4641 19.1304 30.9835 19.6498C31.5029 20.1693 31.7627 20.8304 31.7627 21.6332C31.7627 22.4359 31.5029 23.0971 30.9835 23.6165L28.4335 26.1665H37.571C38.3738 26.1665 39.0349 26.4376 39.5543 26.9797C40.0738 27.5237 40.3335 28.1971 40.3335 28.9998C40.3335 29.8026 40.0615 30.4751 39.5175 31.0172C38.9754 31.5612 38.3029 31.8332 37.5002 31.8332H28.4335L31.0543 34.454C31.5738 34.9734 31.8222 35.6232 31.7995 36.4033C31.7749 37.1816 31.5029 37.8304 30.9835 38.3498C30.4641 38.8693 29.8029 39.129 29.0002 39.129C28.1974 39.129 27.5363 38.8693 27.0168 38.3498ZM29.0002 57.3332C32.9196 57.3332 36.6029 56.589 40.0502 55.1005C43.4974 53.614 46.496 51.5957 49.046 49.0457C51.596 46.4957 53.6143 43.4971 55.1008 40.0498C56.5893 36.6026 57.3335 32.9193 57.3335 28.9998C57.3335 25.0804 56.5893 21.3971 55.1008 17.9498C53.6143 14.5026 51.596 11.504 49.046 8.95401C46.496 6.40401 43.4974 4.38478 40.0502 2.89634C36.6029 1.40978 32.9196 0.666504 29.0002 0.666504C25.0807 0.666504 21.3974 1.40978 17.9502 2.89634C14.5029 4.38478 11.5043 6.40401 8.95432 8.95401C6.40432 11.504 4.38605 14.5026 2.89949 17.9498C1.41105 21.3971 0.666824 25.0804 0.666824 28.9998C0.666824 32.9193 1.41105 36.6026 2.89949 40.0498C4.38605 43.4971 6.40432 46.4957 8.95432 49.0457C11.5043 51.5957 14.5029 53.614 17.9502 55.1005C21.3974 56.589 25.0807 57.3332 29.0002 57.3332ZM29.0002 51.6665C22.7196 51.6665 17.3712 49.4593 12.955 45.045C8.54066 40.6288 6.33349 35.2804 6.33349 28.9998C6.33349 22.7193 8.54066 17.3709 12.955 12.9547C17.3712 8.54034 22.7196 6.33317 29.0002 6.33317C35.2807 6.33317 40.6282 8.54034 45.0425 12.9547C49.4587 17.3709 51.6668 22.7193 51.6668 28.9998C51.6668 35.2804 49.4587 40.6288 45.0425 45.045C40.6282 49.4593 35.2807 51.6665 29.0002 51.6665Z" fill="#819FAC"/>
</svg>
