<svg width="24" height="24" viewBox="0 0 24 24" fill="none" xmlns="http://www.w3.org/2000/svg">
<path d="M12 1C5.9247 1 1 5.9247 1 12C1 18.0753 5.9247 23 12 23C18.0753 23 23 18.0753 23 12C23 5.9247 18.0753 1 12 1Z" stroke="#2E5BF0" stroke-width="1.5" stroke-linecap="round" stroke-linejoin="round"/>
<path d="M3.49805 18.981C3.49805 18.981 5.94995 15.8504 11.9999 15.8504C18.0499 15.8504 20.5029 18.981 20.5029 18.981M11.9999 12.0004C12.8752 12.0004 13.7145 11.6527 14.3334 11.0338C14.9523 10.415 15.2999 9.57561 15.2999 8.70039C15.2999 7.82518 14.9523 6.98581 14.3334 6.36694C13.7145 5.74807 12.8752 5.40039 11.9999 5.40039C11.1247 5.40039 10.2854 5.74807 9.66649 6.36694C9.04762 6.98581 8.69995 7.82518 8.69995 8.70039C8.69995 9.57561 9.04762 10.415 9.66649 11.0338C10.2854 11.6527 11.1247 12.0004 11.9999 12.0004V12.0004Z" stroke="#2E5BF0" stroke-width="1.5" stroke-linecap="round" stroke-linejoin="round"/>
</svg>
