<svg width="58" height="58" viewBox="0 0 58 58" fill="none" xmlns="http://www.w3.org/2000/svg">
<path d="M30.9832 38.3498L38.3498 30.9832C38.9165 30.4165 39.1998 29.7554 39.1998 28.9998C39.1998 28.2443 38.9165 27.5832 38.3498 27.0165L30.9123 19.579C30.3929 19.0596 29.7441 18.8112 28.9658 18.8338C28.1857 18.8584 27.5359 19.1304 27.0165 19.6498C26.4971 20.1693 26.2373 20.8304 26.2373 21.6332C26.2373 22.4359 26.4971 23.0971 27.0165 23.6165L29.5665 26.1665H20.429C19.6262 26.1665 18.9651 26.4376 18.4457 26.9797C17.9262 27.5237 17.6665 28.1971 17.6665 28.9998C17.6665 29.8026 17.9385 30.4751 18.4825 31.0172C19.0246 31.5612 19.6971 31.8332 20.4998 31.8332H29.5665L26.9457 34.454C26.4262 34.9734 26.1778 35.6232 26.2005 36.4033C26.2251 37.1816 26.4971 37.8304 27.0165 38.3498C27.5359 38.8693 28.1971 39.129 28.9998 39.129C29.8026 39.129 30.4637 38.8693 30.9832 38.3498ZM28.9998 57.3332C25.0804 57.3332 21.3971 56.589 17.9498 55.1005C14.5026 53.614 11.504 51.5957 8.95401 49.0457C6.40401 46.4957 4.38573 43.4971 2.89917 40.0498C1.41073 36.6026 0.666504 32.9193 0.666504 28.9998C0.666504 25.0804 1.41073 21.3971 2.89917 17.9498C4.38573 14.5026 6.40401 11.504 8.95401 8.95401C11.504 6.40401 14.5026 4.38478 17.9498 2.89634C21.3971 1.40978 25.0804 0.666504 28.9998 0.666504C32.9193 0.666504 36.6026 1.40978 40.0498 2.89634C43.4971 4.38478 46.4957 6.40401 49.0457 8.95401C51.5957 11.504 53.614 14.5026 55.1005 17.9498C56.589 21.3971 57.3332 25.0804 57.3332 28.9998C57.3332 32.9193 56.589 36.6026 55.1005 40.0498C53.614 43.4971 51.5957 46.4957 49.0457 49.0457C46.4957 51.5957 43.4971 53.614 40.0498 55.1005C36.6026 56.589 32.9193 57.3332 28.9998 57.3332ZM28.9998 51.6665C35.2804 51.6665 40.6288 49.4593 45.045 45.045C49.4593 40.6288 51.6665 35.2804 51.6665 28.9998C51.6665 22.7193 49.4593 17.3709 45.045 12.9547C40.6288 8.54034 35.2804 6.33317 28.9998 6.33317C22.7193 6.33317 17.3718 8.54034 12.9575 12.9547C8.54128 17.3709 6.33317 22.7193 6.33317 28.9998C6.33317 35.2804 8.54128 40.6288 12.9575 45.045C17.3718 49.4593 22.7193 51.6665 28.9998 51.6665Z" fill="#819FAC"/>
</svg>
