<svg width="31" height="31" viewBox="0 0 31 31" fill="none" xmlns="http://www.w3.org/2000/svg">
<path d="M16.4096 20.5583L20.2887 16.6791C20.5871 16.3807 20.7363 16.0326 20.7363 15.6347C20.7363 15.2369 20.5871 14.8887 20.2887 14.5903L16.3723 10.6739C16.0987 10.4003 15.7571 10.2695 15.3473 10.2815C14.9365 10.2944 14.5943 10.4376 14.3208 10.7112C14.0473 10.9847 13.9105 11.3328 13.9105 11.7555C13.9105 12.1783 14.0473 12.5264 14.3208 12.7999L15.6636 14.1427H10.8519C10.4292 14.1427 10.0811 14.2855 9.80753 14.5709C9.534 14.8574 9.39724 15.212 9.39724 15.6347C9.39724 16.0574 9.54047 16.4115 9.82693 16.697C10.1124 16.9835 10.4665 17.1267 10.8892 17.1267L15.6636 17.1267L14.2835 18.5068C14.01 18.7803 13.8792 19.1225 13.8911 19.5333C13.904 19.9431 14.0473 20.2847 14.3208 20.5583C14.5943 20.8318 14.9425 20.9686 15.3652 20.9686C15.7879 20.9686 16.136 20.8318 16.4096 20.5583ZM15.3652 30.5546C13.3013 30.5546 11.3617 30.1627 9.54644 29.3789C7.73118 28.5961 6.15216 27.5333 4.80938 26.1905C3.46659 24.8477 2.40379 23.2687 1.621 21.4535C0.837208 19.6382 0.445313 17.6986 0.445313 15.6347C0.445313 13.5708 0.837208 11.6312 1.621 9.81597C2.40379 8.00072 3.46659 6.4217 4.80938 5.07891C6.15216 3.73612 7.73118 2.67283 9.54644 1.88904C11.3617 1.10624 13.3013 0.714844 15.3652 0.714844C17.4291 0.714844 19.3687 1.10624 21.1839 1.88904C22.9992 2.67283 24.5782 3.73612 25.921 5.07891C27.2638 6.4217 28.3266 8.00072 29.1094 9.81597C29.8932 11.6312 30.2851 13.5708 30.2851 15.6347C30.2851 17.6986 29.8932 19.6382 29.1094 21.4535C28.3266 23.2687 27.2638 24.8477 25.921 26.1905C24.5782 27.5333 22.9992 28.5961 21.1839 29.3789C19.3687 30.1627 17.4291 30.5546 15.3652 30.5546ZM15.3652 27.5706C18.6724 27.5706 21.4888 26.4084 23.8143 24.0838C26.1388 21.7583 27.3011 18.942 27.3011 15.6347C27.3011 12.3275 26.1388 9.5111 23.8143 7.18559C21.4888 4.86108 18.6724 3.69882 15.3652 3.69882C12.0579 3.69882 9.24207 4.86108 6.91755 7.18559C4.59204 9.5111 3.42929 12.3275 3.42929 15.6347C3.42929 18.942 4.59204 21.7583 6.91755 24.0838C9.24207 26.4084 12.0579 27.5706 15.3652 27.5706Z" fill="#A7AFD0"/>
</svg>
